<?xml version="1.0" standalone="no"?>
<!DOCTYPE svg PUBLIC "-//W3C//DTD SVG 20010904//EN"
 "http://www.w3.org/TR/2001/REC-SVG-20010904/DTD/svg10.dtd">
<svg version="1.0" xmlns="http://www.w3.org/2000/svg"
 width="16.000000pt" height="16.000000pt" viewBox="0 0 16.000000 16.000000"
 preserveAspectRatio="xMidYMid meet">
<metadata>
Created by potrace 1.11, written by Peter Selinger 2001-2013
</metadata>
<g transform="translate(0.000000,16.000000) scale(0.005333,-0.005333)"
fill="#000000" stroke="none">
<path d="M64 2754 c-68 -33 -63 56 -63 -1245 0 -1288 -3 -1220 61 -1259 31
-19 50 -20 389 -20 l356 0 0 145 c0 140 -1 145 -21 146 -12 0 -126 0 -253 0
l-233 1 0 71 c-2 694 1 1872 5 1876 3 2 114 6 248 6 133 1 245 3 248 4 3 0 5
66 5 146 l0 145 -355 0 c-297 0 -361 -3 -387 -16z"/>
<path d="M2192 2638 c0 -73 1 -140 4 -149 4 -14 32 -16 245 -15 133 1 245 -2
251 -5 11 -7 15 -1920 4 -1938 -4 -6 -86 -10 -219 -10 -117 0 -228 0 -248 0
l-36 -1 0 -145 0 -145 356 0 c339 0 358 1 389 20 64 39 61 -28 61 1254 0 771
-4 1177 -11 1196 -5 16 -25 39 -43 50 -31 19 -48 20 -392 20 l-360 0 -1 -132z"/>
<path d="M570 1500 l0 -750 233 0 232 0 19 33 c10 17 41 75 69 127 27 52 53
100 58 106 5 6 27 46 50 90 23 43 77 144 121 224 45 80 96 173 115 208 l34 62
31 -57 c17 -32 56 -105 88 -163 126 -229 289 -529 322 -592 l20 -38 234 0 234
0 0 750 0 750 -234 0 -235 0 0 -272 c0 -150 0 -295 0 -322 l-1 -49 -23 44
c-13 24 -40 74 -60 112 -21 37 -53 97 -73 133 -20 37 -44 81 -55 98 l-19 31
-230 0 -231 0 -28 -50 c-16 -27 -43 -77 -62 -110 -18 -33 -50 -91 -71 -130
-22 -38 -45 -82 -51 -97 -6 -16 -14 -28 -17 -28 -3 0 -5 144 -4 320 l0 320
-233 0 -233 0 0 -750z"/>
</g>
</svg>
